<?xml version="1.0" encoding="UTF-8" ?>
<!DOCTYPE svg PUBLIC "-//W3C//DTD SVG 1.1//EN" "http://www.w3.org/Graphics/SVG/1.1/DTD/svg11.dtd">
<svg width="1135pt" height="1050pt" viewBox="0 0 1135 1050" version="1.1" xmlns="http://www.w3.org/2000/svg">
<g id="#cba6f7ff">
<path fill="#cba6f7" stroke="#cba6f7" stroke-width="0.09375" opacity="1.00" d=" M 293.08 2.64 C 296.16 3.74 299.17 5.23 301.46 7.62 C 329.81 36.90 359.12 65.22 388.15 93.81 C 420.74 126.24 453.52 158.47 486.04 190.97 C 509.70 213.62 532.47 237.18 555.90 260.06 C 559.91 264.06 564.52 267.49 567.97 272.04 C 569.67 274.35 569.03 277.43 569.09 280.12 C 559.14 281.91 549.02 280.94 539.00 280.62 C 464.70 281.43 390.37 280.67 316.06 281.17 C 308.57 281.00 300.93 281.97 293.60 279.96 C 292.90 273.22 294.05 266.50 293.85 259.77 C 292.07 226.20 292.80 192.58 292.87 158.99 C 293.67 144.66 292.43 130.31 293.13 115.98 C 293.18 88.00 293.75 60.03 293.47 32.06 C 293.42 22.25 291.58 12.42 293.08 2.64 Z" />
<path fill="#cba6f7" stroke="#cba6f7" stroke-width="0.09375" opacity="1.00" d=" M 909.62 136.88 C 927.15 134.31 945.11 136.18 962.19 140.59 C 989.03 147.62 1013.89 162.91 1031.29 184.65 C 1036.41 190.85 1041.60 197.20 1048.41 201.64 C 1070.89 216.55 1096.61 225.39 1121.97 234.00 C 1124.70 235.04 1128.08 235.46 1129.78 238.15 C 1131.53 240.43 1132.04 244.63 1129.05 246.13 C 1122.53 249.34 1115.39 250.96 1108.55 253.33 C 1083.63 261.29 1060.30 274.34 1040.83 291.84 C 1018.74 312.33 1002.33 339.45 996.50 369.16 C 994.19 380.67 994.18 392.44 992.96 404.07 C 991.64 417.76 990.06 431.42 988.70 445.10 C 981.02 496.65 968.04 547.62 947.48 595.59 C 929.58 636.97 906.82 676.35 878.76 711.69 C 851.86 745.81 820.97 776.85 786.46 803.29 C 719.82 854.56 640.37 889.68 557.02 901.80 C 513.66 908.76 469.63 904.94 425.96 906.73 C 421.86 907.11 418.82 902.87 419.12 899.07 C 420.44 867.07 418.90 835.04 419.75 803.04 C 419.88 796.30 418.70 789.61 419.09 782.88 C 418.74 778.93 424.26 777.59 427.22 778.77 C 438.32 783.77 450.23 786.50 462.02 789.35 C 481.23 794.37 501.18 795.39 520.94 796.00 C 538.69 795.22 556.65 794.73 573.97 790.33 C 630.53 777.36 682.61 745.41 719.33 700.42 C 731.69 685.91 741.99 669.75 750.85 652.90 C 756.86 640.21 762.51 627.30 766.61 613.86 C 773.44 591.85 777.06 568.93 778.41 545.95 C 779.48 528.16 776.72 510.46 773.90 492.96 C 771.58 476.90 766.74 461.31 760.88 446.22 C 754.67 430.79 747.58 415.61 738.19 401.83 C 725.03 381.84 709.71 363.09 691.43 347.56 C 686.63 343.85 686.26 335.77 690.74 331.68 C 704.12 317.37 716.85 302.47 729.82 287.79 C 759.11 255.07 787.42 221.49 816.71 188.77 C 824.97 179.38 833.37 169.96 843.56 162.60 C 862.71 148.19 885.93 139.79 909.62 136.88 M 925.44 210.57 C 913.27 213.75 902.79 225.05 903.18 238.05 C 903.55 250.61 913.89 261.30 925.81 264.12 C 939.14 267.32 953.88 260.26 960.21 248.21 C 962.39 243.84 964.14 238.72 962.68 233.84 C 958.88 218.11 941.51 206.05 925.44 210.57 Z" />
<path fill="#cba6f7" stroke="#cba6f7" stroke-width="0.09375" opacity="1.00" d=" M 1.37 321.35 C 167.92 321.32 334.47 321.59 501.02 321.25 C 509.36 321.36 517.71 320.96 526.05 321.32 C 550.46 322.27 574.75 327.31 597.40 336.50 C 625.96 348.35 652.25 365.95 673.44 388.52 C 699.11 415.72 717.79 449.61 726.36 486.06 C 729.01 496.72 729.75 507.71 731.29 518.55 C 734.54 540.98 731.22 563.66 727.37 585.79 C 716.89 635.19 687.47 679.75 647.87 710.77 C 636.12 720.21 622.75 727.32 609.48 734.34 C 571.27 753.08 527.11 758.91 485.17 752.33 C 453.04 747.68 422.50 734.51 395.89 716.09 C 380.43 705.48 367.53 691.75 354.06 678.82 C 325.74 650.50 297.31 622.30 268.96 594.01 C 244.31 569.01 219.02 544.65 193.99 520.03 C 131.21 458.45 68.64 396.65 5.89 335.03 C 2.25 331.57 -0.12 326.39 1.37 321.35 Z" />
<path fill="#cba6f7" stroke="#cba6f7" stroke-width="0.09375" opacity="1.00" d=" M 365.10 763.10 C 367.06 760.41 370.56 760.11 373.62 760.24 C 374.32 787.82 373.84 815.41 373.92 842.99 C 373.89 906.65 373.98 970.32 373.83 1033.98 C 373.66 1037.79 374.59 1041.99 372.51 1045.47 C 371.43 1047.38 369.16 1048.08 367.08 1047.92 C 283.06 1047.89 199.03 1047.98 115.01 1047.83 C 108.77 1047.69 102.44 1048.36 96.31 1046.87 C 96.12 1043.59 95.39 1039.62 98.11 1037.14 C 141.87 991.92 186.10 947.15 229.90 901.97 C 256.07 875.12 282.40 848.44 308.55 821.57 C 320.46 809.48 331.99 797.00 344.19 785.19 C 351.39 778.05 358.56 770.86 365.10 763.10 Z" />
</g>
</svg>